SplineFontDB: 3.0
FontName: StickNoBills
FullName: Stick No Bills
FamilyName: Stick No Bills
Weight: Regular
Copyright: Copyright (c) 2013 STICK NO BILLS, Copyright (c) 2015 mooniak\n
UComments: "2015-2-15: Created with FontForge (http://fontforge.org) The  Free Font Editor"
Version: 1.0.1
ItalicAngle: 0
UnderlinePosition: -102
UnderlineWidth: 51
Ascent: 819
Descent: 205
InvalidEm: 0
LayerCount: 2
Layer: 0 0 "Back" 1
Layer: 1 0 "Fore" 0
PreferredKerning: 4
XUID: [1021 792 -450466945 9124014]
FSType: 0
OS2Version: 0
OS2_WeightWidthSlopeOnly: 0
OS2_UseTypoMetrics: 1
CreationTime: 1423989519
ModificationTime: 1428227421
PfmFamily: 81
TTFWeight: 400
TTFWidth: 5
LineGap: 94
VLineGap: 0
OS2TypoAscent: 0
OS2TypoAOffset: 1
OS2TypoDescent: 0
OS2TypoDOffset: 1
OS2TypoLinegap: 94
OS2WinAscent: 0
OS2WinAOffset: 1
OS2WinDescent: 0
OS2WinDOffset: 1
HheadAscent: 0
HheadAOffset: 1
HheadDescent: 0
HheadDOffset: 1
OS2Vendor: 'PfEd'
OS2UnicodeRanges: 00000002.00000000.00000000.00000000
MarkAttachClasses: 1
DEI: 91125
LangName: 1033 "" "" "" "SNBMooniak" "" "" "" "STICK NO BILLS is a trademark of STICK NO BILLS Gallery, Sri Lanka <http://sticknobillsonline.com>" "mooniak <http://mooniak.com>" "Martyn Hodges <allroundboatbuilder@yahoo.com> , Kosala Senavirathne <kosala@mooniak.com>, mooniak <hello@mooniak.com>" "Stick No Bills - is the bespoke typeface of STICK NO BILLS+ISIA Poster Gallery in Galle, Sri Lanka. " "https://github.com/mooniak/stick-no-bills-font" "http://type.mooniak.com/" "This Font Software is licensed under the SIL Open Font License, Version 1.1. This license is available with a FAQ at: http://scripts.sil.org/OFL"
Encoding: ISO8859-1
UnicodeInterp: none
NameList: AGL For New Fonts
DisplaySize: -128
AntiAlias: 1
FitToEm: 1
WinInfo: 240 10 4
BeginPrivate: 0
EndPrivate
Grid
-1024 -182 m 4
 2048 -182 l 1028
-1024 691 m 0
 2048 691 l 1024
-1024 208 m 0
 2048 208 l 1024
-1024 705 m 0
 2048 705 l 1024
-1024 -5 m 0
 2048 -5 l 1024
26 1331 m 0
 26 -717 l 1024

StartChar: A
Encoding: 65 65 0
GlifName: A_
Width: 516
VWidth: 0
Flags: W
HStem: 0 21G<26 168.371 348.294 490> 0 21G<26 168.371 348.294 490> 679 20G<200 343.32> 679 20G<200 343.32>
VStem: 155 15<549.661 582>
LayerCount: 2
Back
Fore
SplineSet
155 582 m 1x88
 170 582 l 1
 230 302 l 1
 164 0 l 1
 26 0 l 1
 155 582 l 1x88
200 699 m 1xa8
 339 699 l 1
 490 0 l 1
 353 0 l 1
 333 85 l 1
 239 85 l 1
 269 223 l 1
 305 223 l 1
 200 699 l 1xa8
EndSplineSet
EndChar

StartChar: B
Encoding: 66 66 1
GlifName: B_
Width: 484
VWidth: 0
Flags: W
HStem: 0 122<221 291.531> 289 122<221 291.168> 577 123<221 291.515>
VStem: 26 141<0 700> 324 134<151.717 258.739 443.181 546.292>
LayerCount: 2
Back
Fore
SplineSet
221 122 m 1
 308 122 324 179 324 205 c 0
 324 227 311 289 221 289 c 1
 221 411 l 1
 281 411 322 446 322 497 c 0
 322 547 280 576 221 577 c 1
 221 700 l 1
 229 701 237 701 245 701 c 0
 397 701 454 574 454 514 c 0
 454 513 l 0
 453 421 420 378 385 352 c 1
 423 322 458 285 458 201 c 0
 458 199 458 198 458 197 c 0
 457 86 366 -2 249 -2 c 0
 240 -2 230 -1 221 0 c 1
 221 122 l 1
26 700 m 1
 167 700 l 1
 167 0 l 1
 26 0 l 1
 26 700 l 1
EndSplineSet
EndChar

StartChar: D
Encoding: 68 68 2
GlifName: D_
Width: 452
VWidth: 0
Flags: W
HStem: 0 21G<32 173 227 257> 0 21G<32 173 227 257> 680 20G<32 173 227 298.5>
VStem: 32 141<0 700> 283 141<158.175 544.574>
LayerCount: 2
Back
Fore
SplineSet
227 0 m 1xb8
 227 141 l 1
 233 141 282 149 283 197 c 2
 283 503 l 1
 283 508 275 558 227 559 c 1
 227 700 l 1
 370 700 424 566 424 503 c 1
 424 197 l 1
 424 50 287 0 227 0 c 1xb8
32 0 m 1
 32 700 l 1
 173 700 l 1
 173 0 l 1
 32 0 l 1
EndSplineSet
EndChar

StartChar: I
Encoding: 73 73 3
GlifName: I_
Width: 209
VWidth: 0
Flags: W
HStem: 0 21G<34 175> 0 21G<34 175> 680 20G<34 175>
VStem: 34 141<0 700>
LayerCount: 2
Back
Fore
SplineSet
34 700 m 1xb0
 175 700 l 1
 175 0 l 1
 34 0 l 1
 34 700 l 1xb0
EndSplineSet
EndChar

StartChar: L
Encoding: 76 76 4
GlifName: L_
Width: 428
VWidth: 0
Flags: W
HStem: 0 139<167 402> 680 20G<26 167>
VStem: 26 141<139 700>
LayerCount: 2
Back
Fore
SplineSet
402 139 m 1
 402 0 l 1
 26 0 l 1
 26 700 l 1
 167 700 l 1
 167 139 l 1
 402 139 l 1
EndSplineSet
EndChar

StartChar: T
Encoding: 84 84 5
GlifName: T_
Width: 485
VWidth: 0
Flags: W
HStem: 0 21G<172 313> 0 21G<172 313> 562 138<26 172 313 459>
VStem: 172 141<0 562>
LayerCount: 2
Back
Fore
SplineSet
459 700 m 1xb0
 459 562 l 1
 313 562 l 1
 313 0 l 1
 172 0 l 1
 172 562 l 1
 26 562 l 1
 26 700 l 1
 459 700 l 1xb0
EndSplineSet
EndChar

StartChar: K
Encoding: 75 75 6
GlifName: K_
Width: 475
VWidth: 0
Flags: W
HStem: 0 21G<26 167 312.431 457> 0 21G<26 167 312.431 457> 680 20G<26 167 308.039 453>
VStem: 26 141<0 700>
LayerCount: 2
Back
Fore
SplineSet
314 700 m 1xb0
 453 700 l 1
 347 341 l 1
 457 0 l 1
 319 0 l 1
 207 341 l 1
 314 700 l 1xb0
26 700 m 1
 167 700 l 1
 167 0 l 1
 26 0 l 1
 26 700 l 1
EndSplineSet
EndChar

StartChar: P
Encoding: 80 80 7
GlifName: P_
Width: 474
VWidth: 0
Flags: W
HStem: 0 21G<26 167> 0 21G<26 167> 318 139<221 294.329> 561 139<221 296.296>
VStem: 26 141<0 700> 305 143<466.352 553.217>
LayerCount: 2
Back
Fore
SplineSet
221 457 m 1x3c
 254 457 l 2
 261 457 305 458 305 508 c 0
 305 559 263 561 254 561 c 2
 221 561 l 1
 221 700 l 1
 402 700 448 626 448 512 c 0
 448 369 378 318 221 318 c 1
 221 457 l 1x3c
26 700 m 1
 167 700 l 1
 167 0 l 1
 26 0 l 1xbc
 26 700 l 1
EndSplineSet
EndChar

StartChar: M
Encoding: 77 77 8
GlifName: M_
Width: 676
VWidth: 0
Flags: W
HStem: 0 21G<32 173 276.678 390.874 503 644> 0 21G<32 173 276.678 390.874 503 644> 680 20G<32 150.251 503 644>
VStem: 32 141<0 127> 503 141<0 700>
LayerCount: 2
Back
Fore
SplineSet
32 0 m 1xb8
 32 444 l 1
 41 444 l 1
 173 127 l 1
 173 0 l 1
 32 0 l 1xb8
32 700 m 1
 142 700 l 1
 333 237 l 1
 439 476 l 1
 449 476 l 1
 449 151 l 1
 382 0 l 1
 285 0 l 1
 32 608 l 1
 32 700 l 1
503 700 m 1
 644 700 l 1
 644 0 l 1
 503 0 l 1
 503 700 l 1
EndSplineSet
EndChar

StartChar: R
Encoding: 82 82 9
GlifName: R_
Width: 495
VWidth: 0
Flags: W
HStem: 0 21G<32 173 341.315 469> 0 21G<32 173 341.315 469> 286 125<227 298.384> 567 133<227 297.775>
VStem: 32 141<0 700> 326 127<133.346 257.376 433.007 541.035>
LayerCount: 2
Back
Fore
SplineSet
227 411 m 1xbc
 240 411 l 2
 300 411 326 447 326 488 c 0
 326 536 289 567 240 567 c 2
 227 567 l 1
 227 700 l 1
 377 700 453 616 453 496 c 0
 453 428 432 381 386 352 c 1
 422 325 448 266 452 217 c 2
 469 0 l 1
 343 0 l 1
 328 178 l 2
 321 257 298 285 227 286 c 1
 227 411 l 1xbc
32 700 m 1
 173 700 l 1
 173 0 l 1
 32 0 l 1
 32 700 l 1
EndSplineSet
EndChar

StartChar: J
Encoding: 74 74 10
GlifName: J_
Width: 495
VWidth: 0
Flags: W
HStem: -5 142<180.708 213 267 307.368> 680 20G<323 463>
VStem: 26 141<150.234 242> 323 140<154.843 700>
LayerCount: 2
Back
Fore
SplineSet
213 -5 m 1
 153 -5 26 54 26 193 c 1
 26 242 l 1
 167 242 l 1
 167 193 l 2
 168 147 208 137 213 137 c 1
 213 -5 l 1
267 -5 m 1
 267 137 l 1
 272 137 322 147 323 193 c 2
 323 700 l 1
 463 700 l 1
 463 193 l 1
 463 49 327 -5 267 -5 c 1
EndSplineSet
EndChar

StartChar: C
Encoding: 67 67 11
GlifName: C_
Width: 494
VWidth: 0
Flags: W
HStem: 685 20G<157.5 229 283 329>
VStem: 32 141<148.773 550.292> 330 138<148.189 182 516 551.605>
LayerCount: 2
Back
Fore
SplineSet
283 564 m 1
 283 705 l 1
 375 705 468 612 468 516 c 1
 330 480 l 1
 330 495 l 2
 330 509 330 520 325 532 c 0
 315 555 283 564 283 564 c 1
283 136 m 1
 283 136 315 143 325 166 c 0
 330 178 330 189 330 203 c 2
 330 215 l 1
 468 182 l 1
 468 76 375 -5 283 -5 c 1
 283 136 l 1
229 705 m 1
 229 564 l 1
 183 563 173 523 173 518 c 1
 173 181 l 1
 173 176 183 136 229 136 c 1
 229 -5 l 1
 86 -5 32 121 32 181 c 1
 32 518 l 1
 32 578 86 705 229 705 c 1
EndSplineSet
EndChar

StartChar: U
Encoding: 85 85 12
GlifName: U_
Width: 512
VWidth: 0
Flags: W
HStem: -5 142<188.54 229 283 323.74> 680 20G<32 173 339 479>
VStem: 32 141<154.843 700> 339 140<154.612 700>
LayerCount: 2
Back
Fore
SplineSet
229 -5 m 1
 169 -5 32 49 32 193 c 2
 32 700 l 1
 173 700 l 1
 173 193 l 1
 174 147 224 137 229 137 c 1
 229 -5 l 1
283 -5 m 1
 283 137 l 1
 288 137 338 147 339 193 c 1
 339 700 l 1
 479 700 l 1
 479 193 l 2
 479 48 344 -5 283 -5 c 1
EndSplineSet
EndChar

StartChar: E
Encoding: 69 69 13
GlifName: E_
Width: 422
VWidth: 0
Flags: W
HStem: 0 141<173 396> 277 141<173 302> 560 140<173 396>
VStem: 32 364<0 141 560 700> 32 141<141 277 418 560>
LayerCount: 2
Back
Fore
SplineSet
396 141 m 1xf0
 396 0 l 1
 32 0 l 1
 32 700 l 1
 396 700 l 1
 396 560 l 1xf0
 173 560 l 1
 173 418 l 1
 302 418 l 1
 302 277 l 1
 173 277 l 1
 173 141 l 1xe8
 396 141 l 1xf0
EndSplineSet
EndChar

StartChar: O
Encoding: 79 79 14
GlifName: O_
Width: 508
VWidth: 0
Flags: W
HStem: -5 142<185.632 226 281 321.46> 564 141<186.089 227 281 321.65>
VStem: 30 141<156.794 549.004> 337 141<156.794 548.717>
LayerCount: 2
Back
Fore
SplineSet
226 -5 m 1
 166 -5 30 51 30 195 c 2
 30 524 l 2
 30 584 95 705 227 705 c 1
 227 564 l 1
 181 563 171 513 171 508 c 2
 171 195 l 2
 171 149 221 137 226 137 c 1
 226 -5 l 1
281 -5 m 1
 281 137 l 1
 286 137 336 149 337 195 c 2
 337 508 l 2
 337 513 327 563 281 564 c 1
 281 705 l 1
 412 705 478 583 478 524 c 2
 478 195 l 2
 478 51 341 -5 281 -5 c 1
EndSplineSet
EndChar

StartChar: F
Encoding: 70 70 15
GlifName: F_
Width: 422
VWidth: 0
Flags: W
HStem: 1 21G<32 173> 1 21G<32 173> 277 141<173 302> 560 140<173 396>
VStem: 32 141<1 277 418 560>
LayerCount: 2
Back
Fore
SplineSet
302 418 m 1xb8
 302 277 l 1
 173 277 l 1
 173 1 l 1
 32 1 l 1
 32 700 l 1
 396 700 l 1
 396 560 l 1
 173 560 l 1
 173 418 l 1
 302 418 l 1xb8
EndSplineSet
EndChar

StartChar: H
Encoding: 72 72 16
GlifName: H_
Width: 458
VWidth: 0
Flags: W
HStem: 0 21G<32 173 285 426> 0 21G<32 173 285 426> 680 20G<32 173 285 426>
VStem: 32 170<283 421> 32 141<0 283 421 700> 256 170<283 421> 285 141<0 283 421 700>
LayerCount: 2
Back
Fore
SplineSet
202 421 m 1xb0
 202 283 l 1xb0
 173 283 l 1
 173 0 l 1
 32 0 l 1
 32 700 l 1
 173 700 l 1
 173 421 l 1xa8
 202 421 l 1xb0
285 700 m 1xa2
 426 700 l 1
 426 0 l 1
 285 0 l 1
 285 283 l 1xa2
 256 283 l 1
 256 421 l 1xa4
 285 421 l 1
 285 700 l 1xa2
EndSplineSet
EndChar

StartChar: Q
Encoding: 81 81 17
GlifName: Q_
Width: 500
VWidth: 0
Flags: W
HStem: 564 141<182.089 223 277 317.65>
VStem: 26 141<156.794 549.004> 333 141<153.204 548.717>
LayerCount: 2
Back
Fore
SplineSet
222 -5 m 1
 162 -5 26 51 26 195 c 2
 26 524 l 2
 26 584 91 705 223 705 c 1
 223 564 l 1
 177 563 167 513 167 508 c 2
 167 195 l 2
 167 149 217 137 222 137 c 1
 222 -5 l 1
405 47 m 1
 460 -32 l 1
 348 -107 l 1
 277 -5 l 1
 277 137 l 1
 282 137 332 149 333 195 c 2
 333 508 l 2
 333 513 323 563 277 564 c 1
 277 705 l 1
 408 705 474 583 474 524 c 2
 474 195 l 2
 474 127 444 79 405 47 c 1
EndSplineSet
EndChar

StartChar: G
Encoding: 71 71 18
GlifName: G_
Width: 493
VWidth: 0
Flags: W
HStem: -5 141<181.632 222 276 306.977> 685 20G<156 222 276 322.5>
VStem: 26 141<153.868 550.439> 276 185<223 353> 319 142<148.928 223 516 551.684>
LayerCount: 2
Back
Fore
SplineSet
276 564 m 1xf0
 276 705 l 1xf0
 369 705 461 612 461 516 c 1xe8
 323 465 l 1
 323 495 l 2
 323 509 323 520 318 532 c 0
 308 555 276 564 276 564 c 1xf0
461 353 m 1
 461 176 l 2xe8
 461 95 358 -4 276 -5 c 1
 276 136 l 1xf0
 282 136 319 155 319 190 c 2
 319 223 l 1xe8
 276 223 l 1
 276 353 l 1
 461 353 l 1
222 -5 m 1
 162 -5 26 48 26 192 c 1
 26 524 l 1
 34 589 90 705 222 705 c 1
 222 564 l 1
 176 563 167 513 167 508 c 1
 167 192 l 2
 168 146 217 136 222 136 c 1
 222 -5 l 1
EndSplineSet
EndChar

StartChar: S
Encoding: 83 83 19
GlifName: S_
Width: 497
VWidth: 0
Flags: W
HStem: 680 20G<190.5 216 271 324>
VStem: 41 134<467.373 556.768> 333 141<146.862 253.417>
LayerCount: 2
Back
Fore
SplineSet
216 700 m 1
 216 568 l 1
 195 562 175 537 175 513 c 0
 175 446 279 434 346 394 c 0
 407 358 474 311 474 209 c 0
 474 96 379 -3 271 -3 c 1
 271 127 l 1
 295 130 333 150 333 203 c 0
 333 278 224 294 164 323 c 0
 93 357 41 403 41 508 c 0
 41 647 165 699 216 700 c 1
271 700 m 1
 377 700 440 589 446 553 c 1
 316 510 l 1
 311 557 271 568 271 568 c 1
 271 700 l 1
216 -3 m 1
 107 -3 34 103 33 158 c 1
 160 203 l 1
 162 147 216 127 216 127 c 1
 216 -3 l 1
EndSplineSet
EndChar

StartChar: V
Encoding: 86 86 20
GlifName: V_
Width: 508
VWidth: 0
Flags: W
HStem: 0 21G<223.2 282.709> 0 21G<223.2 282.709> 680 20G<26 175.867 332.086 482>
LayerCount: 2
Back
Fore
SplineSet
26 700 m 1xa0
 170 700 l 1
 329 158 l 1
 276 0 l 1
 229 0 l 1
 26 700 l 1xa0
482 700 m 1
 442 569 401 430 359 290 c 1
 349 290 l 1
 283 514 l 1
 338 700 l 1
 482 700 l 1
EndSplineSet
EndChar

StartChar: W
Encoding: 87 87 21
GlifName: W_
Width: 725
VWidth: 0
Flags: W
HStem: 0 21G<223.2 282.582 436.2 495.582> 0 21G<223.2 282.582 436.2 495.582> 680 20G<26 175.83 239 388.83 549.086 699>
LayerCount: 2
Back
Fore
SplineSet
26 700 m 1xa0
 170 700 l 1
 328 158 l 1
 276 0 l 1
 229 0 l 1
 26 700 l 1xa0
239 700 m 1
 383 700 l 1
 541 158 l 1
 489 0 l 1
 442 0 l 1
 239 700 l 1
699 700 m 1
 576 290 l 1
 566 290 l 1
 500 514 l 1
 555 700 l 1
 699 700 l 1
EndSplineSet
EndChar

StartChar: N
Encoding: 78 78 22
GlifName: N_
Width: 509
VWidth: 0
Flags: W
HStem: 0 21G<32 173 397.566 477> 0 21G<32 173 397.566 477> 680 20G<32 159.406 336 477>
VStem: 32 141<0 278> 336 141<498 700>
LayerCount: 2
Back
Fore
SplineSet
32 0 m 1xb8
 32 492 l 1
 40 492 l 1
 173 278 l 1
 173 0 l 1
 32 0 l 1xb8
477 700 m 1
 477 284 l 1
 469 284 l 1
 336 498 l 1
 336 700 l 1
 477 700 l 1
32 700 m 1
 147 700 l 1
 477 168 l 1
 477 0 l 1
 410 0 l 1
 32 608 l 1
 32 700 l 1
EndSplineSet
EndChar

StartChar: one
Encoding: -1 49 23
GlifName: one
Width: 309
VWidth: 0
Flags: HMW
LayerCount: 2
Back
Fore
SplineSet
99 499 m 1
 43 444 l 1
 43 645 l 1
 99 701 l 1
 104 701 l 1
 226 701 l 1
 226 -0 l 1
 99 -0 l 1
 99 499 l 1
EndSplineSet
Validated: 1
EndChar

StartChar: two
Encoding: -1 50 24
GlifName: two
Width: 515
VWidth: 0
Flags: HMW
LayerCount: 2
Back
Fore
SplineSet
464 127 m 1
 464 0 l 1
 63 0 l 1
 63 127 l 1
 464 127 l 1
209 703 m 1
 209 577 l 2
 208 577 161 561 161 499 c 1
 43 524 l 1
 52 608 114 691 209 703 c 1
264 578 m 1
 264 704 l 1
 266 704 269 704 271 704 c 0
 425 704 471 573 472 500 c 0
 472 499 472 498 472 497 c 0
 472 393 411 364 352 319 c 0
 281 265 247 235 210 186 c 1
 70 186 l 1
 135 306 232 363 262 388 c 0
 306 424 353 438 354 500 c 0
 354 501 354 501 354 502 c 0
 354 552 319 576 264 578 c 1
209 577 m 2
 209 577 209 577 209 577 c 2
 209 577 209 577 209 577 c 2
 209 577 l 2
EndSplineSet
Validated: 1
EndChar

StartChar: four
Encoding: 52 52 25
GlifName: four
Width: 483
VWidth: 0
Flags: W
HStem: 0 21G<273 403> 0 21G<273 403> 145 127<170 216 403 457> 681 20G<273 403>
VStem: 26 190<145 272> 273 184<145 272> 273 130<0 145 272 701>
LayerCount: 2
Back
Fore
SplineSet
216 272 m 1x38
 216 145 l 1
 26 145 l 1
 26 272 l 1
 216 598 l 1
 216 351 l 1
 170 272 l 1
 216 272 l 1x38
457 272 m 1xbc
 457 145 l 1xbc
 403 145 l 1
 403 0 l 1
 273 0 l 1
 273 701 l 1
 403 701 l 1
 403 272 l 1xba
 457 272 l 1xbc
EndSplineSet
EndChar

StartChar: X
Encoding: 88 88 26
GlifName: X_
Width: 464
VWidth: 0
Flags: W
HStem: 0 21G<26 178.305 285.695 438> 0 21G<26 178.305 285.695 438> 680 20G<38 182.5 281.5 426>
LayerCount: 2
Back
Fore
SplineSet
426 700 m 1xa0
 302 361 l 1
 438 0 l 1
 293 0 l 1
 232 167 l 1
 171 0 l 1
 26 0 l 1
 162 361 l 1
 38 700 l 1
 175 700 l 1
 232 548 l 1
 289 700 l 1
 426 700 l 1xa0
EndSplineSet
EndChar

StartChar: Y
Encoding: 89 89 27
GlifName: Y_
Width: 479
VWidth: 0
Flags: W
HStem: 0 21G<157 303> 0 21G<157 303> 680 20G<26 178.817 302.222 453>
VStem: 157 146<0 276.513>
LayerCount: 2
Back
Fore
SplineSet
26 700 m 1xb0
 173 700 l 1
 303 253 l 1
 303 0 l 1
 157 0 l 1
 157 252 l 1
 26 700 l 1xb0
269 565 m 1
 308 700 l 1
 453 700 l 1
 344 331 l 5
 335 331 l 1
 269 565 l 1
EndSplineSet
EndChar

StartChar: Z
Encoding: 90 90 28
GlifName: Z_
Width: 418
VWidth: 0
Flags: W
HStem: 0 144<182 392> 560 140<26 236>
VStem: 26 366<0 141 563 700>
LayerCount: 2
Back
Fore
SplineSet
182 144 m 1
 392 144 l 1
 392 0 l 1
 26 0 l 1
 26 141 l 1
 236 560 l 1
 26 560 l 1
 26 700 l 1
 392 700 l 1
 392 563 l 1
 182 144 l 1
EndSplineSet
EndChar

StartChar: one
Encoding: 49 49 30
GlifName: one000000000000001
Width: 266
VWidth: 0
Flags: W
HStem: 0 21G<106 236> 0 21G<106 236> 679 20G<80.2373 236> 679 20G<80.2373 236>
VStem: 30 206<499 640> 106 130<0 499>
LayerCount: 2
Back
Fore
SplineSet
106 499 m 1xa4
 30 439 l 1
 30 640 l 1xa8
 106 699 l 1
 236 699 l 1
 236 0 l 1
 106 0 l 1
 106 499 l 1xa4
EndSplineSet
EndChar

StartChar: at
Encoding: 64 64 31
GlifName: at
Width: 803
VWidth: 0
Flags: W
HStem: -87 109<300.084 551.032> 116 403<326.449 430.329> 116 124<513 612.557> 602 113<332.61 547.83>
VStem: 16 120<185.906 417.659> 205 340<240.742 366.985> 666 120<304.625 493.205>
LayerCount: 2
Back
SplineSet
691 142 m 5xbe
 736 64 l 5
 661 2 552 -22 422 -22 c 4
 186 -22 30 133 30 354 c 4
 30 581 221 757 477 757 c 4
 650 757 827 632 827 457 c 4
 827 246 689 161 555 161 c 4xbe
 512 163 491 182 481 206 c 5
 463 184 426 161 367 161 c 4
 284 161 219 223 219 319 c 4
 219 491 347 564 432 564 c 4xde
 496 564 518 538 533 522 c 5
 541 549 l 5
 636 549 l 5
 575 330 l 6
 572 319 568 302 568 288 c 4
 568 271 573 262 589 262 c 4
 657 262 718 325 718 457 c 4
 718 575 577 653 478 653 c 4
 272 653 134 510 134 352 c 4
 134 187 258 75 424 75 c 4
 567 75 645 112 691 142 c 5xbe
EndSplineSet
Fore
SplineSet
667 103 m 1xbe
 717 12 l 1
 658 -45 538 -87 423 -87 c 0
 195 -87 16 47 16 309 c 0
 16 533 191 715 448 715 c 0
 610 715 786 612 786 412 c 0
 786 201 654 116 532 116 c 0xbe
 494 116 463 137 453 161 c 1
 439 139 407 116 344 116 c 0
 268 116 205 193 205 289 c 0
 205 444 327 519 409 519 c 0xde
 473 519 495 493 510 477 c 1
 518 504 l 1
 602 504 l 1
 552 308 l 2
 549 297 545 280 545 266 c 0
 545 249 549 240 563 240 c 0
 598 240 666 280 666 412 c 0
 666 530 549 602 451 602 c 0
 284 602 136 481 136 312 c 0
 136 122 260 22 414 22 c 0
 501 22 587 47 667 103 c 1xbe
EndSplineSet
EndChar

StartChar: two
Encoding: 50 50 32
GlifName: two000000000000001
Width: 480
VWidth: 0
Flags: W
HStem: 0 127<43 447> 574 126<164.168 190 245 304.811>
VStem: 330 123<439.165 552.734>
LayerCount: 2
Back
Fore
SplineSet
447 127 m 1
 447 0 l 1
 43 0 l 1
 43 127 l 1
 447 127 l 1
190 699 m 1
 190 573 l 2
 189 573 142 557 142 495 c 1
 24 520 l 1
 33 604 95 687 190 699 c 1
245 574 m 1
 245 700 l 1
 247 700 250 700 252 700 c 0
 406 700 452 574 453 497 c 0
 453 496 453 495 453 494 c 0
 453 390 403 358 342 315 c 0
 271 265 231 232 197 179 c 1
 45 179 l 1
 105 302 205 359 235 384 c 0
 278 421 329 433 330 495 c 0
 330 496 330 496 330 497 c 0
 330 547 300 572 245 574 c 1
EndSplineSet
EndChar

StartChar: period
Encoding: -1 46 33
GlifName: period
Width: 250
VWidth: 0
Flags: HMW
LayerCount: 2
Back
Fore
SplineSet
50 53 m 0
 50 95 83 129 125 129 c 0
 167 129 200 95 200 53 c 0
 200 11 167 -22 125 -22 c 0
 83 -22 50 11 50 53 c 0
EndSplineSet
Validated: 1
EndChar

StartChar: colon
Encoding: 58 58 34
GlifName: colon
Width: 250
VWidth: 0
Flags: W
HStem: -5 151<71.75 178.25> 285 151<71.75 178.25>
VStem: 50 150<16.75 123.75 306.75 413.75>
LayerCount: 2
Back
Fore
SplineSet
50 70 m 0
 50 112 83 146 125 146 c 0
 167 146 200 112 200 70 c 0
 200 28 167 -5 125 -5 c 0
 83 -5 50 28 50 70 c 0
50 360 m 0
 50 402 83 436 125 436 c 0
 167 436 200 402 200 360 c 0
 200 318 167 285 125 285 c 0
 83 285 50 318 50 360 c 0
EndSplineSet
EndChar

StartChar: quotedbl
Encoding: -1 34 35
GlifName: quotedbl
Width: 407
VWidth: 0
Flags: HMW
LayerCount: 2
Back
Fore
SplineSet
177 465 m 1
 50 465 l 1
 50 736 l 1
 177 736 l 1
 177 465 l 1
357 465 m 1
 230 465 l 1
 230 736 l 1
 357 736 l 1
 357 465 l 1
EndSplineSet
Validated: 1
EndChar

StartChar: plus
Encoding: -1 43 36
GlifName: plus
Width: 475
VWidth: 0
Flags: HMW
LayerCount: 2
Back
Fore
SplineSet
425 357 m 1
 425 230 l 1
 300 230 l 1
 300 87 l 1
 173 87 l 1
 173 230 l 1
 50 230 l 1
 50 357 l 1
 173 357 l 1
 173 498 l 1
 300 498 l 1
 300 357 l 1
 425 357 l 1
EndSplineSet
Validated: 1
EndChar

StartChar: asterisk
Encoding: -1 42 37
GlifName: asterisk
Width: 591
VWidth: 0
Flags: HMW
LayerCount: 2
Back
Fore
SplineSet
352 94 m 1
 234 94 l 1
 234 237 l 1
 119 157 l 1
 50 253 l 1
 195 353 l 1
 50 459 l 1
 120 554 l 1
 234 471 l 1
 234 605 l 1
 351 605 l 1
 351 467 l 1
 471 556 l 1
 540 461 l 1
 393 354 l 1
 541 252 l 1
 472 156 l 1
 351 238 l 1
 352 94 l 1
EndSplineSet
Validated: 1
EndChar

StartChar: comma
Encoding: -1 44 38
GlifName: comma
Width: 265
VWidth: 0
Flags: HMW
LayerCount: 2
Back
Fore
SplineSet
178 -23 m 1
 51 -23 l 1
 88 129 l 1
 215 129 l 1
 178 -23 l 1
EndSplineSet
Validated: 1
EndChar

StartChar: copyright
Encoding: 169 169 39
GlifName: copyright
Width: 859
VWidth: 0
Flags: W
HStem: -49 93<323.214 412 447 535.786> 112 89<380.502 412> 476 90<380.502 412> 636 90<315.99 412 447 543.01>
VStem: 50 89<229.778 447.758> 287 90<205.907 472.093> 720 89<229.778 447.758>
LayerCount: 2
Back
Fore
SplineSet
412 44 m 1
 412 -49 l 1
 240 -43 56 104 50 327 c 0
 50 331 50 335 50 339 c 0
 50 589 264 725 412 726 c 1
 412 636 l 1
 283 635 139 516 139 339 c 0
 139 337 139 334 139 332 c 0
 142 179 266 51 412 44 c 1
447 476 m 1
 447 566 l 1
 506 566 565 507 565 446 c 1
 477 413 l 1
 477 432 l 2
 477 441 477 448 474 456 c 0
 468 470 447 476 447 476 c 1
447 201 m 1
 447 201 468 207 474 222 c 0
 477 229 477 236 477 245 c 2
 477 264 l 1
 565 232 l 1
 565 171 506 112 447 112 c 1
 447 201 l 1
412 566 m 1
 412 476 l 1
 383 476 377 450 377 447 c 1
 377 231 l 1
 377 228 383 203 412 203 c 1
 412 112 l 1
 321 112 287 193 287 231 c 1
 287 447 l 1
 287 485 321 566 412 566 c 1
447 44 m 1
 593 51 717 179 720 332 c 0
 720 334 720 337 720 339 c 0
 720 516 576 635 447 636 c 1
 447 726 l 1
 595 725 809 589 809 339 c 0
 809 335 809 331 809 327 c 0
 803 104 619 -43 447 -49 c 1
 447 44 l 1
EndSplineSet
EndChar

StartChar: registered
Encoding: 174 174 40
GlifName: registered
Width: 404
VWidth: 0
Flags: W
HStem: 354 42<132.516 191 211 272.484> 511 36<206 233.687> 591 37<206 232.21> 662 41<132.067 195 211 271.196>
VStem: 30 40<458.344 596.494> 151 39<430 627> 234 36<431 510.036 547.671 589.86> 334 40<462.559 598.781>
LayerCount: 2
Back
Fore
SplineSet
191 396 m 1
 192 354 l 1
 111 355 30 432 30 523 c 0
 30 524 30 524 30 525 c 0
 30 649 133 703 193 703 c 0
 194 703 194 703 195 703 c 1
 195 662 l 1
 136 662 70 609 70 526 c 0
 71 457 126 399 191 396 c 1
211 396 m 1
 276 399 332 456 334 525 c 0
 334 526 334 526 334 527 c 0
 334 608 270 662 211 662 c 1
 211 703 l 1
 277 702 374 641 374 528 c 0
 374 526 374 525 374 523 c 0
 374 423 288 357 211 354 c 1
 211 396 l 1
206 547 m 1
 210 547 l 2
 227 547 234 557 234 568 c 0
 234 582 224 591 210 591 c 2
 206 591 l 1
 206 628 l 1
 248 628 270 604 270 570 c 0
 270 551 264 538 251 530 c 1
 261 522 269 506 270 492 c 2
 270 431 l 1
 235 431 l 1
 235 481 l 2
 235 504 226 511 206 511 c 1
 206 547 l 1
151 627 m 1
 190 627 l 1
 190 430 l 1
 151 430 l 1
 151 627 l 1
EndSplineSet
EndChar

StartChar: a
Encoding: 97 97 41
GlifName: a
Width: 435
VWidth: 0
Flags: W
HStem: 1 112<129.768 180 229 263.822 385.452 410>
VStem: 26 101<115.641 182.856> 268 116<116.437 227 324.598 403.803>
LayerCount: 2
Back
Fore
SplineSet
228 519 m 1
 231 519 l 2
 334 519 384 424 384 380 c 0
 384 143 l 0
 384 138 386 114 407 114 c 0
 410 114 l 1
 410 1 l 1
 407 1 l 0
 370 1 341 13 321 30 c 1
 298 12 268 1 232 1 c 2
 229 1 l 1
 229 113 l 1
 232 113 l 2
 262 114 268 146 268 149 c 0
 268 227 l 1
 230 205 153 190 139 183 c 0
 133 180 127 173 127 162 c 0
 127 149 l 2
 127 129 137 113 163 113 c 2
 180 113 l 1
 180 1 l 1
 83 1 26 64 26 121 c 2
 26 167 l 2
 26 200 33 233 75 257 c 0
 118 282 268 311 268 351 c 0
 268 355 268 359 268 363 c 0
 268 387 266 404 231 407 c 0
 228 408 l 1
 228 519 l 1
181 407 m 1
 178 407 l 2
 155 405 138 390 138 353 c 0
 138 349 l 1
 33 389 l 1
 33 391 l 0
 33 462 110 519 178 519 c 0
 181 519 l 1
 181 407 l 1
EndSplineSet
EndChar

StartChar: period
Encoding: 46 46 42
GlifName: period000000000000001
Width: 250
VWidth: 0
Flags: W
HStem: -22 151<71.75 178.25>
VStem: 50 150<-0.25 106.75>
LayerCount: 2
Back
Fore
SplineSet
50 53 m 0
 50 95 83 129 125 129 c 0
 167 129 200 95 200 53 c 0
 200 11 167 -22 125 -22 c 0
 83 -22 50 11 50 53 c 0
EndSplineSet
EndChar

StartChar: o
Encoding: 111 111 43
GlifName: o
Width: 420
VWidth: 0
Flags: W
HStem: -1 118<152.634 192 233 271.159> 398 118<152.894 192 233 270.899>
VStem: 28 120<119.657 394.936> 275 117<119.345 394.936>
LayerCount: 2
Back
Fore
SplineSet
28 376 m 0
 28 421 79 516 186 516 c 2
 192 516 l 1
 192 398 l 1
 186 398 l 0
 153 398 148 373 148 363 c 1
 148 154 l 1
 148 135 156 117 186 117 c 0
 192 117 l 1
 192 -1 l 1
 186 -1 l 0
 78 -1 28 97 28 141 c 0
 28 376 l 0
233 398 m 1
 233 516 l 1
 239 516 l 0
 342 516 392 421 392 376 c 0
 392 141 l 0
 392 96 343 -1 239 -1 c 0
 233 -1 l 1
 233 117 l 1
 239 117 l 0
 270 118 275 141 275 152 c 1
 275 363 l 1
 275 380 269 398 239 398 c 0
 233 398 l 1
EndSplineSet
EndChar

StartChar: quotedbl
Encoding: 34 34 44
GlifName: quotedbl000000000000001
Width: 359
VWidth: 0
Flags: W
HStem: 465 271<26 153 206 333>
VStem: 26 127<465 736> 206 127<465 736>
LayerCount: 2
Back
Fore
SplineSet
153 465 m 1
 26 465 l 1
 26 736 l 1
 153 736 l 1
 153 465 l 1
333 465 m 1
 206 465 l 1
 206 736 l 1
 333 736 l 1
 333 465 l 1
EndSplineSet
EndChar

StartChar: plus
Encoding: 43 43 45
GlifName: plus000000000000001
Width: 575
VWidth: 0
Flags: W
HStem: 230 127<100 223 350 475>
VStem: 223 127<87 230 357 498>
LayerCount: 2
Back
Fore
SplineSet
475 357 m 1
 475 230 l 1
 350 230 l 1
 350 87 l 1
 223 87 l 1
 223 230 l 1
 100 230 l 1
 100 357 l 1
 223 357 l 1
 223 498 l 1
 350 498 l 1
 350 357 l 1
 475 357 l 1
EndSplineSet
EndChar

StartChar: asterisk
Encoding: 42 42 46
GlifName: asterisk000000000000001
Width: 394
VWidth: 0
Flags: W
HStem: 478 307<160 231> 517 21G<77.614 120.936 273.6 316.386>
VStem: 160 71<478 564 704 785>
LayerCount: 2
Back
Fore
SplineSet
231 478 m 1xa0
 160 478 l 1xa0
 160 564 l 1
 92 517 l 1x60
 51 574 l 1
 138 633 l 1
 50 691 l 1
 92 748 l 1
 160 704 l 1
 160 785 l 1
 231 785 l 1
 231 702 l 1
 302 748 l 1
 344 691 l 1
 256 632 l 1
 343 572 l 1
 302 515 l 1
 231 565 l 1
 231 478 l 1xa0
EndSplineSet
EndChar

StartChar: comma
Encoding: 44 44 47
GlifName: comma000000000000001
Width: 264
VWidth: 0
Flags: W
HStem: -58 187<87 177>
VStem: 50 164
LayerCount: 2
Back
Fore
SplineSet
177 -58 m 1
 50 -58 l 1
 87 129 l 1
 214 129 l 1
 177 -58 l 1
EndSplineSet
EndChar

StartChar: r
Encoding: 114 114 48
GlifName: r
Width: 316
VWidth: 0
Flags: W
HStem: 0 21G<36 160> 0 21G<36 160> 395 121<221.776 289>
VStem: 36 124<0 333.833 454 516>
LayerCount: 2
Back
Fore
SplineSet
36 516 m 1xb0
 160 516 l 1
 160 454 l 1
 181 481 229 516 284 516 c 0
 317 516 l 1
 289 395 l 1
 222 394 160 331 160 271 c 0
 160 0 l 1
 36 0 l 1
 36 516 l 1xb0
EndSplineSet
EndChar

StartChar: f
Encoding: 102 102 49
GlifName: f
Width: 304
VWidth: 0
Flags: W
HStem: 0 21G<89 211> 0 21G<89 211> 400 116<26 89 211 277> 579 117<215.402 277>
VStem: 89 122<0 400 516 576.403>
LayerCount: 2
Back
Fore
SplineSet
89 552 m 0xb8
 89 597 140 695 243 696 c 2
 304 696 l 1
 277 579 l 1
 244 579 l 1
 216 578 211 555 211 552 c 0
 211 515 l 1
 277 516 l 1
 277 400 l 1
 211 400 l 1
 211 0 l 1
 89 0 l 1
 89 400 l 1
 26 400 l 1
 26 516 l 1
 89 516 l 1
 89 552 l 0xb8
EndSplineSet
EndChar

StartChar: g
Encoding: 103 103 50
GlifName: g
Width: 415
VWidth: 0
Flags: W
HStem: -181 112<54 267.899> -1 113<152.236 192 231 270.817> 403 113<152.564 192 231 269.903>
VStem: 35 115<115.465 399.128> 231 158<3 109 403 511> 272 117<-63.5391 3 112.302 400.192 511 516>
LayerCount: 2
Back
Fore
SplineSet
236 -181 m 1xf4
 26 -181 l 1
 54 -69 l 1
 234 -69 l 1
 265 -68 272 -43 272 -40 c 0
 272 3 l 1xf4
 260 0 248 -1 234 -1 c 0
 231 -1 l 1
 231 109 l 1xf8
 234 109 l 0
 265 110 272 136 272 139 c 0
 272 374 l 0xf4
 272 377 265 403 234 403 c 0
 231 403 l 1
 231 516 l 1xf8
 234 516 l 0
 247 516 261 514 272 511 c 1
 272 516 l 1
 389 516 l 1
 389 -40 l 0
 389 -83 339 -180 236 -181 c 1xf4
189 516 m 0
 192 516 l 1
 192 403 l 1
 189 403 l 0
 157 403 150 378 150 375 c 0
 150 140 l 0
 150 137 158 112 189 112 c 0
 192 112 l 1
 192 -1 l 1
 189 -1 l 0
 84 -1 35 96 35 139 c 0
 35 378 l 1
 36 422 85 516 189 516 c 0
EndSplineSet
EndChar
